<svg width="17" height="20" viewBox="0 0 17 20" fill="none" xmlns="http://www.w3.org/2000/svg">
<path d="M6.86973 3.57949C7.17221 3.75666 7.31368 4.01196 7.42084 4.33629C7.43282 4.3706 7.4448 4.40491 7.45714 4.44026C7.49506 4.54914 7.53209 4.65828 7.56901 4.76749C7.61803 4.91071 7.66744 5.05378 7.71719 5.19674C7.72918 5.23123 7.74116 5.26571 7.75351 5.30124C8.263 6.74444 9.20651 7.83099 10.5792 8.50102C10.9256 8.66367 11.2895 8.78467 11.6503 8.91119C11.765 8.95151 11.8796 8.99197 11.9941 9.03285C12.0645 9.058 12.1351 9.08283 12.2058 9.1073C12.5315 9.2235 12.7695 9.37107 12.9449 9.67806C13.0196 9.95819 13.0016 10.207 12.8705 10.4652C12.6973 10.6889 12.4943 10.7932 12.2352 10.8869C12.2034 10.8989 12.1715 10.9109 12.1387 10.9233C11.9449 10.9958 11.7499 11.0646 11.5546 11.133C10.6299 11.4576 9.8439 11.8431 9.10795 12.4986C9.08061 12.5224 9.05326 12.5462 9.02509 12.5707C8.85788 12.7259 8.7238 12.9062 8.58804 13.0887C8.56064 13.1253 8.56064 13.1253 8.5327 13.1627C8.24788 13.5549 8.03253 13.9654 7.86536 14.4197C7.84789 14.4658 7.83043 14.5119 7.81243 14.5594C7.72199 14.7996 7.63551 15.0409 7.5526 15.2838C7.53654 15.3303 7.52048 15.3768 7.50392 15.4248C7.47369 15.5129 7.44414 15.6013 7.41542 15.6899C7.30262 16.0191 7.15072 16.2695 6.84634 16.4499C6.54598 16.5328 6.32087 16.5094 6.03593 16.3859C5.77428 16.2073 5.68263 15.9627 5.58474 15.6743C5.57106 15.6356 5.55737 15.5969 5.54327 15.557C5.49967 15.4337 5.45676 15.3101 5.41399 15.1865C5.08677 14.2431 4.73546 13.3967 4.03362 12.6649C4.00017 12.6298 3.96671 12.5946 3.93224 12.5584C3.89707 12.5249 3.8619 12.4915 3.82566 12.457C3.79778 12.4298 3.7699 12.4026 3.74117 12.3746C3.01395 11.6887 2.10441 11.3568 1.1744 11.0395C1.06834 11.0031 0.962491 10.9662 0.856644 10.9293C0.824883 10.9186 0.793122 10.908 0.760399 10.8971C0.47479 10.797 0.21281 10.6608 0.0707672 10.378C-0.0226167 10.1175 -0.0292045 9.87128 0.0849023 9.6181C0.278207 9.25807 0.634154 9.16021 1.00076 9.03304C1.0738 9.00707 1.14683 8.98107 1.21985 8.95506C1.33261 8.91512 1.44542 8.87537 1.55839 8.83604C2.32824 8.56729 3.03275 8.24395 3.65929 7.71539C3.70569 7.6784 3.70569 7.6784 3.75303 7.64065C3.99161 7.44457 4.17793 7.21012 4.36636 6.96672C4.39473 6.93117 4.42309 6.89562 4.45231 6.859C4.96651 6.18984 5.22217 5.37452 5.49652 4.58682C5.51836 4.52487 5.51836 4.52487 5.54063 4.46166C5.56805 4.38361 5.59499 4.3054 5.62138 4.22701C5.71088 3.97209 5.80606 3.77699 6.03593 3.62011C6.32289 3.49576 6.57574 3.45038 6.86973 3.57949ZM6.4876 5.96849C6.47645 5.9938 6.4653 6.0191 6.45381 6.04518C5.67587 7.78531 4.505 9.19 2.68269 9.89174C2.62015 9.91531 2.55744 9.93842 2.49469 9.96141C2.49469 9.98886 2.49469 10.0163 2.49469 10.0446C2.51723 10.0535 2.53976 10.0625 2.56299 10.0717C3.34923 10.3872 4.02875 10.7647 4.65752 11.334C4.69462 11.3656 4.73172 11.3972 4.76995 11.4298C5.02803 11.6523 5.24158 11.895 5.44778 12.1658C5.47287 12.1984 5.47287 12.1984 5.49847 12.2316C5.88859 12.7414 6.19577 13.2909 6.40555 13.8984C6.43622 14.0024 6.43622 14.0024 6.52919 14.0375C6.53857 14.0143 6.54795 13.9911 6.55762 13.9672C6.93644 13.0381 7.4099 12.2669 8.10972 11.5419C8.13212 11.5185 8.15452 11.4951 8.1776 11.471C8.81275 10.8197 9.66112 10.3316 10.5221 10.0446C10.5221 10.0171 10.5221 9.98969 10.5221 9.96141C10.4853 9.94774 10.4484 9.93406 10.4105 9.91998C9.49484 9.57205 8.72402 9.06861 8.02654 8.38088C7.98863 8.34351 7.95072 8.30614 7.91167 8.26763C7.27974 7.61227 6.86038 6.80921 6.52919 5.96849C6.51547 5.96849 6.50174 5.96849 6.4876 5.96849Z" fill="white"/>
<path d="M13.6754 12.8599C13.9523 13.0608 14.0292 13.3374 14.1355 13.6501C14.3816 14.3462 14.6693 14.8909 15.3469 15.2437C15.6016 15.3567 15.8611 15.4542 16.1235 15.5477C16.5699 15.7098 16.5699 15.7098 16.7195 15.9092C16.7435 15.94 16.7675 15.9709 16.7923 16.0027C16.8907 16.2192 16.9153 16.4367 16.8443 16.6656C16.7171 16.9427 16.4766 17.0872 16.1993 17.1907C16.1518 17.2075 16.1518 17.2075 16.1034 17.2245C16.0703 17.2369 16.0372 17.2493 16.0031 17.262C15.8679 17.3124 15.7323 17.3611 15.5962 17.4086C15.0497 17.6081 14.6144 17.9995 14.3669 18.5243C14.2855 18.7024 14.2157 18.8826 14.1528 19.068C13.907 19.7902 13.907 19.7902 13.5168 19.9853C13.2733 20.0058 13.0514 20.0209 12.828 19.9151C12.6536 19.7496 12.544 19.597 12.4632 19.3702C12.4463 19.3241 12.4294 19.278 12.4119 19.2306C12.3777 19.1351 12.3436 19.0396 12.3096 18.944C12.0758 18.3091 11.7293 17.7945 11.1109 17.4879C10.8729 17.3821 10.6248 17.2975 10.3783 17.214C10.0993 17.1161 9.83891 17.0094 9.68489 16.7429C9.58404 16.5058 9.58742 16.2826 9.68161 16.0463C9.85324 15.7203 10.1825 15.5966 10.5144 15.4906C11.2342 15.2434 11.7713 14.9347 12.1443 14.2454C12.2417 14.0098 12.3195 13.7676 12.3973 13.5249C12.5223 13.1613 12.6696 12.9454 13.0151 12.7689C13.2483 12.7308 13.4635 12.7512 13.6754 12.8599ZM13.2257 15.1189C13.212 15.1411 13.1983 15.1633 13.1843 15.1862C12.9371 15.5734 12.6463 15.8902 12.2799 16.1675C12.1857 16.242 12.1027 16.3218 12.0195 16.4083C12.0507 16.4305 12.0819 16.4527 12.1141 16.4755C12.5588 16.7993 12.9261 17.1482 13.2257 17.6145C13.3556 17.4924 13.4663 17.3667 13.574 17.2245C13.7989 16.9325 14.0363 16.7167 14.343 16.5114C14.4353 16.4514 14.4353 16.4514 14.5151 16.3667C14.4899 16.35 14.4647 16.3333 14.4387 16.3162C14.0163 16.0296 13.6802 15.72 13.3843 15.3062C13.3125 15.2014 13.3125 15.2014 13.2257 15.1189Z" fill="white"/>
<path d="M13.5168 0.020692C13.6649 0.0934796 13.6649 0.0934796 13.7663 0.187064C13.794 0.211938 13.8217 0.236813 13.8503 0.262441C13.9418 0.363484 13.9775 0.443712 14.0221 0.571961C14.0373 0.614398 14.0525 0.656835 14.0682 0.700558C14.0835 0.74471 14.0989 0.788863 14.1147 0.834354C14.3639 1.54875 14.6791 2.15595 15.3786 2.51527C15.6176 2.62466 15.8678 2.71035 16.1167 2.79411C16.3957 2.89101 16.654 2.99774 16.8085 3.26343C16.9052 3.47168 16.9018 3.66937 16.8442 3.88883C16.7612 4.10617 16.6316 4.2388 16.4283 4.34636C16.225 4.43042 16.0169 4.50133 15.8093 4.57382C15.1313 4.81803 14.648 5.17627 14.3347 5.8359C14.2568 6.01839 14.1872 6.20318 14.1213 6.39026C14.1054 6.43468 14.1054 6.43468 14.0892 6.47999C14.0686 6.53779 14.0485 6.59578 14.0291 6.65398C13.9467 6.88601 13.8223 7.01563 13.6312 7.16428C13.4147 7.26267 13.1972 7.28733 12.9683 7.21627C12.6912 7.08905 12.5467 6.84856 12.4432 6.57126C12.432 6.53963 12.4209 6.50799 12.4094 6.47539C12.397 6.44228 12.3846 6.40917 12.3719 6.37506C12.3215 6.23993 12.2728 6.1043 12.2253 5.96816C11.995 5.33714 11.5491 4.95854 10.9595 4.6778C10.7954 4.60338 10.628 4.54394 10.4575 4.48594C9.89665 4.29472 9.89665 4.29472 9.73313 4.05943C9.61869 3.82623 9.5696 3.60131 9.65334 3.34942C9.74535 3.13872 9.89572 2.98021 10.1075 2.89044C10.1691 2.86802 10.2311 2.84643 10.2933 2.82561C10.36 2.80137 10.4267 2.77705 10.4933 2.75266C10.5262 2.74092 10.5592 2.72917 10.5931 2.71706C11.2939 2.46415 11.8344 2.11405 12.1624 1.42332C12.2154 1.30131 12.262 1.17737 12.308 1.05255C12.3293 0.99487 12.3293 0.99487 12.351 0.936021C12.3789 0.85955 12.4061 0.782841 12.4326 0.705879C12.5272 0.442916 12.6431 0.20105 12.8928 0.05539C13.0856 -0.0249818 13.3128 -0.000134766 13.5168 0.020692ZM13.2256 2.39149C13.2034 2.42269 13.1812 2.4539 13.1584 2.48605C12.8346 2.93079 12.4857 3.29807 12.0194 3.59768C12.1415 3.72759 12.2672 3.83834 12.4094 3.94602C12.7014 4.17086 12.9172 4.40833 13.1225 4.71501C13.1825 4.80725 13.1825 4.80725 13.2672 4.88706C13.2839 4.86187 13.3006 4.83667 13.3177 4.8107C13.6043 4.38833 13.9139 4.05218 14.3277 3.75626C14.4325 3.68452 14.4325 3.68452 14.515 3.59768C14.4928 3.58401 14.4706 3.57034 14.4477 3.55625C14.0444 3.29878 13.7249 2.99126 13.4299 2.61538C13.3653 2.53484 13.3004 2.46231 13.2256 2.39149Z" fill="white"/>
</svg>
