<svg width="20" height="20" viewBox="0 0 20 20" fill="none" xmlns="http://www.w3.org/2000/svg">
<path d="M3.69006 1.67683C3.73167 1.67648 3.77328 1.67613 3.81615 1.67577C3.95206 1.6748 4.08796 1.67458 4.22387 1.67447C4.3191 1.67414 4.41433 1.67379 4.50956 1.67342C4.7084 1.6728 4.90723 1.67261 5.10607 1.67267C5.36051 1.67268 5.61493 1.67126 5.86936 1.66947C6.06571 1.66832 6.26206 1.66811 6.45841 1.66816C6.55223 1.66804 6.64605 1.66758 6.73987 1.66678C6.87099 1.66576 7.00205 1.66606 7.13317 1.66669C7.17163 1.6661 7.21008 1.66552 7.2497 1.66492C7.51506 1.66813 7.66379 1.73332 7.86844 1.89967C8.05545 2.12206 8.14123 2.33552 8.12811 2.62678C8.06596 2.9501 7.92591 3.11574 7.6607 3.30196C7.5117 3.37646 7.38298 3.36162 7.21644 3.36291C7.18146 3.36326 7.14648 3.36361 7.11044 3.36397C7.0343 3.3647 6.95815 3.36531 6.88201 3.36583C6.76097 3.36669 6.63993 3.36789 6.51889 3.3692C6.17466 3.37287 5.83042 3.37598 5.48618 3.37866C5.27559 3.38033 5.06501 3.38248 4.85443 3.3849C4.77465 3.38573 4.69486 3.38637 4.61506 3.38682C3.78554 3.39155 2.97847 3.44546 2.3386 4.04166C1.83874 4.61845 1.73169 5.25353 1.73319 5.9895C1.73301 6.05433 1.73301 6.05433 1.73283 6.12048C1.73251 6.264 1.73255 6.40751 1.73259 6.55102C1.73243 6.65446 1.73226 6.7579 1.73206 6.86135C1.7316 7.14142 1.73148 7.4215 1.73145 7.70158C1.73141 7.8768 1.7313 8.05201 1.73116 8.22723C1.73068 8.83915 1.73047 9.45107 1.73051 10.063C1.73054 10.6324 1.72999 11.2017 1.72917 11.7711C1.72849 12.2608 1.72822 12.7506 1.72825 13.2403C1.72826 13.5324 1.72812 13.8245 1.72757 14.1166C1.72706 14.3914 1.72706 14.6663 1.72744 14.9411C1.72749 15.0416 1.72737 15.1421 1.72705 15.2426C1.72448 16.1191 1.74013 16.9789 2.37593 17.6613C2.9527 18.1612 3.58775 18.2682 4.32369 18.2667C4.36691 18.2668 4.41014 18.267 4.45467 18.2671C4.59818 18.2674 4.74168 18.2674 4.88519 18.2673C4.98863 18.2675 5.09207 18.2677 5.19551 18.2679C5.47557 18.2683 5.75564 18.2684 6.03571 18.2685C6.21092 18.2685 6.38612 18.2686 6.56133 18.2687C7.17323 18.2692 7.78513 18.2694 8.39703 18.2694C8.96636 18.2694 9.5357 18.2699 10.105 18.2707C10.5948 18.2714 11.0845 18.2717 11.5742 18.2717C11.8663 18.2717 12.1584 18.2718 12.4505 18.2723C12.7253 18.2729 13.0001 18.2729 13.2749 18.2725C13.3754 18.2724 13.4759 18.2725 13.5764 18.2729C14.4524 18.2754 15.3136 18.2603 15.995 17.6238C16.5597 16.9737 16.6002 16.2342 16.6022 15.413C16.6026 15.2921 16.6034 15.1711 16.6044 15.0501C16.6071 14.7064 16.6096 14.3627 16.6104 14.019C16.6109 13.808 16.6125 13.5971 16.6146 13.3862C16.6153 13.3061 16.6155 13.2261 16.6154 13.146C16.6153 13.034 16.6165 12.9221 16.6179 12.8101C16.6182 12.7466 16.6185 12.683 16.6188 12.6175C16.6605 12.3436 16.7886 12.1843 16.9992 12.0111C17.2678 11.8689 17.4779 11.8458 17.7685 11.9267C18.0381 12.0261 18.1786 12.1854 18.3073 12.4428C18.3132 12.575 18.316 12.7058 18.3165 12.838C18.3169 12.8788 18.3172 12.9196 18.3176 12.9617C18.3186 13.0973 18.3192 13.2329 18.3197 13.3686C18.3199 13.4151 18.3201 13.4616 18.3203 13.5095C18.3214 13.7562 18.3222 14.0029 18.3227 14.2496C18.3232 14.5027 18.325 14.7558 18.3271 15.0088C18.3284 15.2048 18.3289 15.4007 18.3291 15.5966C18.3293 15.6898 18.3299 15.7829 18.3309 15.8761C18.3417 16.9872 18.0815 17.9326 17.3206 18.7791C17.2802 18.8267 17.2802 18.8267 17.239 18.8753C16.6832 19.487 15.7882 19.9166 14.9676 19.9834C14.8406 19.9873 14.7139 19.988 14.5869 19.9876C14.5387 19.9878 14.4905 19.9881 14.4408 19.9883C14.2804 19.989 14.1201 19.9889 13.9597 19.9888C13.8442 19.9891 13.7288 19.9894 13.6133 19.9898C13.3004 19.9908 12.9875 19.991 12.6746 19.9911C12.4788 19.9911 12.283 19.9914 12.0872 19.9916C11.4387 19.9925 10.7901 19.993 10.1416 19.993C10.1067 19.993 10.0718 19.9929 10.0358 19.9929C9.98341 19.9929 9.98341 19.9929 9.92994 19.9929C9.36427 19.9929 8.79861 19.9939 8.23294 19.9953C7.65069 19.9968 7.06844 19.9975 6.48618 19.9975C6.15987 19.9974 5.83356 19.9977 5.50725 19.9988C5.20007 19.9998 4.8929 19.9998 4.58572 19.9991C4.47349 19.999 4.36126 19.9992 4.24903 19.9999C3.08451 20.006 2.11437 19.7902 1.22079 18.9869C1.17319 18.9465 1.17319 18.9465 1.12463 18.9053C0.512929 18.3495 0.0833431 17.4545 0.0165369 16.6338C0.0127308 16.5068 0.011936 16.3802 0.0123986 16.2531C0.0121633 16.2049 0.0119279 16.1567 0.0116854 16.107C0.0110317 15.9466 0.0111128 15.7863 0.0111988 15.6259C0.0108878 15.5104 0.0105343 15.3949 0.0101417 15.2795C0.00922594 14.9666 0.00898091 14.6536 0.00891458 14.3407C0.00884063 14.1449 0.00861867 13.9491 0.00834361 13.7534C0.0074327 13.1048 0.00694931 12.4562 0.00702733 11.8076C0.00703148 11.7727 0.00703573 11.7378 0.00704001 11.7019C0.00704426 11.6669 0.00704831 11.632 0.00705269 11.596C0.00709486 11.0303 0.00610187 10.4646 0.00463647 9.8989C0.00314015 9.31663 0.00244651 8.73435 0.00251703 8.15208C0.00254344 7.82575 0.00225173 7.49943 0.00114806 7.1731C0.000137421 6.86591 0.000138113 6.55873 0.000890506 6.25153C0.000998517 6.1393 0.00075722 6.02706 0.00012578 5.91483C-0.00599762 4.75026 0.209794 3.78008 1.01305 2.88647C1.03996 2.85473 1.06687 2.823 1.0946 2.7903C1.73668 2.08367 2.74602 1.67566 3.69006 1.67683Z" fill="#333333"/>
<path d="M12.8769 0.00307606C12.9481 0.00279431 13.0193 0.00242428 13.0905 0.00197291C13.2832 0.00102801 13.4759 0.00139212 13.6686 0.00205166C13.8706 0.00257875 14.0725 0.00208954 14.2745 0.00176369C14.6136 0.00138606 14.9528 0.00188299 15.2919 0.00287318C15.6836 0.00400374 16.0753 0.00363749 16.467 0.00249375C16.8038 0.00155008 17.1405 0.00141841 17.4772 0.00196164C17.6781 0.00228502 17.879 0.00233009 18.08 0.00164244C18.2689 0.00104097 18.4578 0.00146103 18.6468 0.00265921C18.7489 0.00306358 18.8511 0.00244887 18.9532 0.00180173C19.5245 0.00727393 19.5245 0.00727393 19.7615 0.237705C20.0427 0.526999 19.9986 0.868034 19.9962 1.24723C19.9964 1.3184 19.9968 1.38958 19.9973 1.46076C19.9982 1.65349 19.9978 1.84619 19.9972 2.03892C19.9967 2.2409 19.9971 2.44288 19.9975 2.64486C19.9979 2.98401 19.9974 3.32314 19.9964 3.66229C19.9952 4.05403 19.9956 4.44574 19.9967 4.83748C19.9977 5.17421 19.9978 5.51093 19.9973 5.84766C19.997 6.0486 19.9969 6.24953 19.9976 6.45047C19.9982 6.63942 19.9978 6.82834 19.9966 7.01728C19.9962 7.11943 19.9968 7.22159 19.9974 7.32374C19.9921 7.8815 19.9921 7.8815 19.7615 8.13211C19.5632 8.32055 19.4041 8.35596 19.1383 8.36582C18.8726 8.35596 18.7135 8.32055 18.5151 8.13211C18.2961 7.86663 18.2771 7.67124 18.279 7.34172C18.2785 7.29456 18.2779 7.24741 18.2774 7.19882C18.2759 7.04369 18.2758 6.8886 18.2757 6.73346C18.2749 6.62562 18.2741 6.51777 18.2731 6.40992C18.2709 6.12662 18.2698 5.84333 18.269 5.56003C18.268 5.27071 18.2658 4.98141 18.2638 4.6921C18.2598 4.12486 18.2572 3.55761 18.2554 2.99036C18.22 3.02586 18.1846 3.06137 18.1481 3.09795C17.2872 3.96123 16.4259 4.82422 15.5644 5.6869C15.1478 6.10408 14.7312 6.52137 14.3149 6.93888C13.9521 7.30272 13.5891 7.66638 13.226 8.02981C13.0336 8.22232 12.8413 8.41491 12.6493 8.60772C12.4686 8.78911 12.2877 8.97027 12.1066 9.15123C12.0401 9.21776 11.9736 9.28438 11.9073 9.3511C11.8169 9.44205 11.7262 9.53268 11.6353 9.62323C11.609 9.64981 11.5828 9.67638 11.5557 9.70376C11.3206 9.93687 11.1658 10.0171 10.8353 10.0213C10.5648 10.016 10.4078 9.98623 10.2055 9.79409C9.9763 9.55276 9.97352 9.33248 9.97021 9.01503C10.0268 8.69541 10.265 8.47306 10.4888 8.25183C10.5308 8.20976 10.5308 8.20976 10.5735 8.16683C10.6667 8.07353 10.7602 7.9806 10.8537 7.88766C10.9207 7.82061 10.9878 7.75353 11.0548 7.68643C11.2365 7.50477 11.4184 7.32342 11.6004 7.14213C11.7907 6.95247 11.9808 6.7625 12.1708 6.57257C12.5305 6.21314 12.8905 5.85397 13.2506 5.4949C13.6607 5.08601 14.0704 4.67684 14.4801 4.26763C15.3227 3.42605 16.1658 2.58484 17.009 1.74387C16.9411 1.74363 16.8733 1.74339 16.8033 1.74314C16.3047 1.7413 15.806 1.73917 15.3073 1.73556C14.9603 1.73305 14.6132 1.73076 14.2661 1.7298C13.9863 1.72901 13.7065 1.72722 13.4267 1.72475C13.3199 1.72397 13.2132 1.72356 13.1065 1.72352C12.9569 1.7234 12.8074 1.72199 12.6578 1.72029C12.5917 1.72068 12.5917 1.72068 12.5243 1.72108C12.2462 1.71619 12.0891 1.66706 11.8675 1.48419C11.679 1.28583 11.6436 1.12672 11.6338 0.860947C11.6436 0.595175 11.679 0.436067 11.8675 0.237705C12.1662 -0.0371794 12.4872 0.000607098 12.8769 0.00307606Z" fill="#333333"/>
</svg>
