<svg width="182" height="31" viewBox="0 0 182 31" fill="none" xmlns="http://www.w3.org/2000/svg">
<path d="M1.21391 30C0.920573 30 0.680573 29.9067 0.493906 29.72C0.30724 29.5333 0.213906 29.2933 0.213906 29V3C0.213906 2.70667 0.30724 2.46667 0.493906 2.28C0.680573 2.09333 0.920573 2 1.21391 2H11.2539C13.9206 2 16.1472 2.42666 17.9339 3.28C19.7206 4.10667 21.0806 5.33333 22.0139 6.96C22.9739 8.56 23.4806 10.5467 23.5339 12.92C23.5606 14.0933 23.5739 15.12 23.5739 16C23.5739 16.88 23.5606 17.8933 23.5339 19.04C23.4539 21.52 22.9606 23.5733 22.0539 25.2C21.1472 26.8267 19.8139 28.04 18.0539 28.84C16.2939 29.6133 14.0939 30 11.4539 30H1.21391ZM6.57391 24.84H11.2539C12.5872 24.84 13.6806 24.64 14.5339 24.24C15.3872 23.84 16.0139 23.2133 16.4139 22.36C16.8406 21.48 17.0672 20.3467 17.0939 18.96C17.1206 18.1867 17.1339 17.4933 17.1339 16.88C17.1606 16.2667 17.1606 15.6533 17.1339 15.04C17.1339 14.4267 17.1206 13.7467 17.0939 13C17.0406 11 16.5206 9.53333 15.5339 8.6C14.5739 7.64 13.0806 7.16 11.0539 7.16H6.57391V24.84ZM29.0933 30C28.8266 30 28.5999 29.9067 28.4133 29.72C28.2266 29.5333 28.1333 29.2933 28.1333 29V10.2C28.1333 9.90667 28.2266 9.66667 28.4133 9.48C28.5999 9.29333 28.8266 9.2 29.0933 9.2H33.0933C33.3866 9.2 33.6266 9.29333 33.8133 9.48C33.9999 9.66667 34.0933 9.90667 34.0933 10.2V29C34.0933 29.2933 33.9999 29.5333 33.8133 29.72C33.6266 29.9067 33.3866 30 33.0933 30H29.0933ZM28.9733 6C28.7066 6 28.4799 5.90667 28.2933 5.72C28.1066 5.53333 28.0133 5.29333 28.0133 5V1.8C28.0133 1.50667 28.1066 1.26667 28.2933 1.08C28.4799 0.866666 28.7066 0.76 28.9733 0.76H33.1733C33.4666 0.76 33.7066 0.866666 33.8933 1.08C34.1066 1.26667 34.2133 1.50667 34.2133 1.8V5C34.2133 5.29333 34.1066 5.53333 33.8933 5.72C33.7066 5.90667 33.4666 6 33.1733 6H28.9733ZM48.3498 30.4C46.4032 30.4 44.6832 30.04 43.1898 29.32C41.7232 28.6 40.5632 27.56 39.7098 26.2C38.8565 24.8133 38.3898 23.16 38.3098 21.24C38.2832 20.8133 38.2698 20.28 38.2698 19.64C38.2698 18.9733 38.2832 18.4267 38.3098 18C38.3898 16.0533 38.8432 14.4 39.6698 13.04C40.5232 11.6533 41.6965 10.6 43.1898 9.88C44.6832 9.16 46.4032 8.8 48.3498 8.8C50.1365 8.8 51.6565 9.05333 52.9098 9.56C54.1632 10.04 55.1898 10.6533 55.9898 11.4C56.7898 12.1467 57.3765 12.9333 57.7498 13.76C58.1498 14.56 58.3632 15.2667 58.3898 15.88C58.4165 16.1467 58.3232 16.3867 58.1098 16.6C57.9232 16.7867 57.6965 16.88 57.4298 16.88H53.1498C52.8832 16.88 52.6698 16.8133 52.5098 16.68C52.3765 16.52 52.2432 16.3067 52.1098 16.04C51.7365 15.1067 51.2565 14.44 50.6698 14.04C50.0832 13.64 49.3498 13.44 48.4698 13.44C47.2698 13.44 46.3232 13.8267 45.6298 14.6C44.9365 15.3733 44.5632 16.5733 44.5098 18.2C44.4832 19.24 44.4832 20.1867 44.5098 21.04C44.5898 22.6933 44.9632 23.8933 45.6298 24.64C46.3232 25.3867 47.2698 25.76 48.4698 25.76C49.4032 25.76 50.1498 25.56 50.7098 25.16C51.2698 24.76 51.7365 24.0933 52.1098 23.16C52.2165 22.8933 52.3498 22.6933 52.5098 22.56C52.6698 22.4 52.8832 22.32 53.1498 22.32H57.4298C57.6965 22.32 57.9232 22.4267 58.1098 22.64C58.3232 22.8267 58.4165 23.0533 58.3898 23.32C58.3632 23.7733 58.2298 24.3067 57.9898 24.92C57.7765 25.5333 57.4165 26.16 56.9098 26.8C56.4298 27.44 55.8032 28.04 55.0298 28.6C54.2565 29.1333 53.3098 29.5733 52.1898 29.92C51.0965 30.24 49.8165 30.4 48.3498 30.4ZM71.593 30.4C68.5263 30.4 66.0863 29.5467 64.273 27.84C62.4863 26.1333 61.5396 23.6533 61.433 20.4C61.433 20.1867 61.433 19.9067 61.433 19.56C61.433 19.1867 61.433 18.8933 61.433 18.68C61.5396 16.6267 62.0063 14.8667 62.833 13.4C63.6596 11.9067 64.8196 10.7733 66.313 10C67.8063 9.2 69.553 8.8 71.553 8.8C73.793 8.8 75.6596 9.26667 77.153 10.2C78.673 11.1067 79.8063 12.36 80.553 13.96C81.3263 15.5333 81.713 17.3467 81.713 19.4V20.32C81.713 20.5867 81.6063 20.8133 81.393 21C81.2063 21.1867 80.9796 21.28 80.713 21.28H67.633C67.633 21.3067 67.633 21.36 67.633 21.44C67.633 21.4933 67.633 21.5467 67.633 21.6C67.6596 22.4533 67.8196 23.24 68.113 23.96C68.433 24.6533 68.873 25.2133 69.433 25.64C70.0196 26.0667 70.713 26.28 71.513 26.28C72.1796 26.28 72.7263 26.1867 73.153 26C73.5796 25.8133 73.9263 25.5867 74.193 25.32C74.4863 25.0533 74.6996 24.8267 74.833 24.64C75.073 24.3733 75.2596 24.2133 75.393 24.16C75.553 24.08 75.793 24.04 76.113 24.04H80.273C80.5396 24.04 80.753 24.12 80.913 24.28C81.0996 24.4133 81.1796 24.6133 81.153 24.88C81.1263 25.3067 80.8996 25.84 80.473 26.48C80.073 27.0933 79.473 27.7067 78.673 28.32C77.873 28.9067 76.873 29.4 75.673 29.8C74.4996 30.2 73.1396 30.4 71.593 30.4ZM67.633 17.64H75.473V17.56C75.473 16.6 75.313 15.7733 74.993 15.08C74.6996 14.36 74.2596 13.8 73.673 13.4C73.0863 13 72.3796 12.8 71.553 12.8C70.7263 12.8 70.0196 13 69.433 13.4C68.8463 13.8 68.393 14.36 68.073 15.08C67.7796 15.7733 67.633 16.6 67.633 17.56V17.64ZM87.1514 30C86.8581 30 86.6181 29.9067 86.4314 29.72C86.2447 29.5333 86.1514 29.2933 86.1514 29V3C86.1514 2.70667 86.2447 2.46667 86.4314 2.28C86.6181 2.09333 86.8581 2 87.1514 2H99.0314C101.245 2 103.058 2.32 104.471 2.96C105.885 3.6 106.925 4.50667 107.591 5.68C108.285 6.85333 108.631 8.22667 108.631 9.8C108.631 10.7867 108.445 11.6533 108.071 12.4C107.725 13.1467 107.285 13.76 106.751 14.24C106.245 14.72 105.751 15.08 105.271 15.32C106.311 15.8 107.218 16.6 107.991 17.72C108.791 18.8133 109.191 20.12 109.191 21.64C109.191 23.32 108.818 24.7867 108.071 26.04C107.325 27.2933 106.218 28.2667 104.751 28.96C103.285 29.6533 101.498 30 99.3914 30H87.1514ZM92.5114 25.32H98.6314C99.9381 25.32 100.925 24.96 101.591 24.24C102.258 23.4933 102.591 22.6133 102.591 21.6C102.591 20.56 102.245 19.6933 101.551 19C100.885 18.28 99.9114 17.92 98.6314 17.92H92.5114V25.32ZM92.5114 13.32H98.2714C99.5247 13.32 100.458 13.0133 101.071 12.4C101.711 11.76 102.031 10.9467 102.031 9.96C102.031 8.97333 101.711 8.18667 101.071 7.6C100.458 6.98667 99.5247 6.68 98.2714 6.68H92.5114V13.32ZM123.044 30.4C120.831 30.4 118.977 30.04 117.484 29.32C115.991 28.5733 114.844 27.52 114.044 26.16C113.271 24.8 112.844 23.2133 112.764 21.4C112.737 20.8667 112.724 20.2667 112.724 19.6C112.724 18.9067 112.737 18.3067 112.764 17.8C112.844 15.96 113.297 14.3733 114.124 13.04C114.951 11.68 116.111 10.64 117.604 9.92C119.097 9.17333 120.911 8.8 123.044 8.8C125.151 8.8 126.951 9.17333 128.444 9.92C129.937 10.64 131.097 11.68 131.924 13.04C132.751 14.3733 133.204 15.96 133.284 17.8C133.337 18.3067 133.364 18.9067 133.364 19.6C133.364 20.2667 133.337 20.8667 133.284 21.4C133.204 23.2133 132.764 24.8 131.964 26.16C131.191 27.52 130.057 28.5733 128.564 29.32C127.071 30.04 125.231 30.4 123.044 30.4ZM123.044 26C124.351 26 125.337 25.6 126.004 24.8C126.671 23.9733 127.031 22.7733 127.084 21.2C127.111 20.8 127.124 20.2667 127.124 19.6C127.124 18.9333 127.111 18.4 127.084 18C127.031 16.4533 126.671 15.2667 126.004 14.44C125.337 13.6133 124.351 13.2 123.044 13.2C121.737 13.2 120.737 13.6133 120.044 14.44C119.377 15.2667 119.017 16.4533 118.964 18C118.937 18.4 118.924 18.9333 118.924 19.6C118.924 20.2667 118.937 20.8 118.964 21.2C119.017 22.7733 119.377 23.9733 120.044 24.8C120.737 25.6 121.737 26 123.044 26ZM147.067 30.4C144.854 30.4 143.001 30.04 141.507 29.32C140.014 28.5733 138.867 27.52 138.067 26.16C137.294 24.8 136.867 23.2133 136.787 21.4C136.761 20.8667 136.747 20.2667 136.747 19.6C136.747 18.9067 136.761 18.3067 136.787 17.8C136.867 15.96 137.321 14.3733 138.147 13.04C138.974 11.68 140.134 10.64 141.627 9.92C143.121 9.17333 144.934 8.8 147.067 8.8C149.174 8.8 150.974 9.17333 152.467 9.92C153.961 10.64 155.121 11.68 155.947 13.04C156.774 14.3733 157.227 15.96 157.307 17.8C157.361 18.3067 157.387 18.9067 157.387 19.6C157.387 20.2667 157.361 20.8667 157.307 21.4C157.227 23.2133 156.787 24.8 155.987 26.16C155.214 27.52 154.081 28.5733 152.587 29.32C151.094 30.04 149.254 30.4 147.067 30.4ZM147.067 26C148.374 26 149.361 25.6 150.027 24.8C150.694 23.9733 151.054 22.7733 151.107 21.2C151.134 20.8 151.147 20.2667 151.147 19.6C151.147 18.9333 151.134 18.4 151.107 18C151.054 16.4533 150.694 15.2667 150.027 14.44C149.361 13.6133 148.374 13.2 147.067 13.2C145.761 13.2 144.761 13.6133 144.067 14.44C143.401 15.2667 143.041 16.4533 142.987 18C142.961 18.4 142.947 18.9333 142.947 19.6C142.947 20.2667 142.961 20.8 142.987 21.2C143.041 22.7733 143.401 23.9733 144.067 24.8C144.761 25.6 145.761 26 147.067 26ZM162.571 30C162.277 30 162.037 29.9067 161.851 29.72C161.664 29.5333 161.571 29.2933 161.571 29V2.6C161.571 2.30666 161.664 2.06667 161.851 1.88C162.037 1.69333 162.277 1.6 162.571 1.6H166.491C166.757 1.6 166.984 1.69333 167.171 1.88C167.357 2.06667 167.451 2.30666 167.451 2.6V16.12L173.611 9.88C173.824 9.69333 174.011 9.53333 174.171 9.4C174.357 9.26666 174.637 9.2 175.011 9.2H179.531C179.797 9.2 180.011 9.29333 180.171 9.48C180.331 9.64 180.411 9.84 180.411 10.08C180.411 10.1867 180.384 10.3067 180.331 10.44C180.277 10.5733 180.184 10.68 180.051 10.76L172.331 18.52L181.051 28.48C181.291 28.6933 181.411 28.9067 181.411 29.12C181.411 29.36 181.317 29.5733 181.131 29.76C180.971 29.92 180.771 30 180.531 30H175.891C175.491 30 175.197 29.9333 175.011 29.8C174.851 29.6667 174.664 29.5067 174.451 29.32L167.451 21.48V29C167.451 29.2933 167.357 29.5333 167.171 29.72C166.984 29.9067 166.757 30 166.491 30H162.571Z" fill="#1565C0"/>
</svg>
