<svg width="20" height="20" viewBox="0 0 20 20" fill="none" xmlns="http://www.w3.org/2000/svg">
<path d="M10 0C10.6462 0 11.2342 0.373726 11.5088 0.958669L13.7062 5.63889L18.5867 6.39004C19.2039 6.4849 19.7161 6.91679 19.9141 7.50903C20.1119 8.10138 19.9622 8.7549 19.5259 9.20176L15.9466 12.8663L16.7955 18.065C16.8982 18.6948 16.6319 19.3282 16.1102 19.6958C15.5884 20.0634 14.902 20.1008 14.3434 19.7919L10 17.3895L5.6566 19.7919C5.09801 20.1008 4.41162 20.0634 3.88978 19.6958C3.36812 19.3282 3.1018 18.6948 3.20454 18.065L4.05254 12.8663L0.474142 9.20176C0.0378315 8.7549 -0.111949 8.10138 0.0859457 7.50903C0.283889 6.91679 0.796076 6.4849 1.4133 6.39004L6.29301 5.63889L8.49116 0.958669C8.76575 0.373726 9.3538 0 10 0ZM7.42505 7.15258L1.6664 8.03719L5.8332 12.3048L4.8501 18.3335L10 15.486L15.1499 18.3335L14.1668 12.3048L18.3336 8.03719L12.575 7.15258L10 1.66668L7.42505 7.15258Z" fill="#212121"/>
</svg>
