<svg width="41" height="38" viewBox="0 0 41 38" fill="none" xmlns="http://www.w3.org/2000/svg">
<path d="M18.2481 1.35564C19.1692 -0.451877 21.8308 -0.451884 22.7519 1.35564L27.7256 11.1151L38.8471 12.6801C40.9069 12.9699 41.7294 15.4213 40.2389 16.8282L32.1913 24.4249L34.0911 35.1516C34.4429 37.1382 32.2897 38.6532 30.4474 37.7152L20.5 32.6508L10.5526 37.7152C8.71031 38.6532 6.55707 37.1382 6.90893 35.1516L8.8087 24.4249L0.761114 16.8282C-0.729356 15.4213 0.0930977 12.9699 2.15288 12.6801L13.2744 11.1151L18.2481 1.35564ZM20.5 2.54407L15.5603 12.2367C15.1946 12.9545 14.4875 13.452 13.6695 13.5671L2.62413 15.1214L10.6167 22.6661C11.2085 23.2248 11.4786 24.0298 11.3389 24.8187L9.45211 35.4719L19.3314 30.4422C20.063 30.0697 20.937 30.0697 21.6686 30.4422L31.5479 35.472L29.6611 24.8187C29.5214 24.0298 29.7915 23.2248 30.3833 22.6661L38.3759 15.1214L27.3305 13.5671C26.5125 13.452 25.8054 12.9545 25.4396 12.2367L20.5 2.54407Z" fill="#F3BB1B"/>
</svg>
