<svg width="22" height="22" viewBox="0 0 22 22" fill="none" xmlns="http://www.w3.org/2000/svg">
<path d="M11 0.5C11.1937 0.5 11.3697 0.61193 11.4521 0.787109L14.4287 7.12793L21.0762 8.15039C21.2613 8.17892 21.4153 8.30869 21.4746 8.48633C21.5338 8.66396 21.4882 8.86015 21.3574 8.99414L16.5332 13.9336L17.6738 20.9199C17.7045 21.1088 17.6242 21.299 17.4678 21.4092C17.3114 21.5192 17.1059 21.5299 16.9385 21.4375L11 18.1543L5.06152 21.4375C4.89412 21.5299 4.68864 21.5192 4.53223 21.4092C4.3758 21.299 4.29555 21.1088 4.32617 20.9199L5.46582 13.9336L0.642578 8.99414C0.511756 8.86015 0.46616 8.66396 0.525391 8.48633C0.584735 8.30869 0.73874 8.17892 0.923828 8.15039L7.57031 7.12793L10.5479 0.787109L10.583 0.724609C10.6746 0.585808 10.8305 0.5 11 0.5Z" fill="#FF9F00" stroke="#FF9F00" stroke-linecap="round" stroke-linejoin="round"/>
</svg>
