<svg width="20" height="20" viewBox="0 0 20 20" fill="none" xmlns="http://www.w3.org/2000/svg">
<path d="M19.1017 1.41665C18.821 1.18142 18.4919 1.01106 18.1379 0.917713C17.7838 0.824368 17.4135 0.810346 17.0533 0.876649L11.9033 1.81248C11.1664 1.94536 10.4958 2.32294 10 2.88415C9.50459 2.32201 8.83396 1.94353 8.09667 1.80998L2.94667 0.874149C2.58647 0.808742 2.21631 0.823239 1.86234 0.916614C1.50836 1.00999 1.17921 1.17996 0.898151 1.41453C0.617088 1.64909 0.390969 1.94252 0.235772 2.27408C0.0805755 2.60564 8.89544e-05 2.96723 0 3.33332L0 17.3617L10 19.1808L20 17.3617V3.33332C20 2.9675 19.9196 2.60616 19.7643 2.27492C19.6091 1.94368 19.3828 1.65066 19.1017 1.41665V1.41665ZM9.16667 17.3333L1.66667 15.9717V3.33332C1.66677 3.21131 1.69366 3.09081 1.74545 2.98033C1.79723 2.86986 1.87264 2.7721 1.96635 2.69397C2.06006 2.61584 2.16979 2.55924 2.28777 2.52817C2.40576 2.4971 2.52913 2.49231 2.64917 2.51415L7.79833 3.44998C8.18235 3.51985 8.52967 3.72228 8.77973 4.02199C9.02979 4.3217 9.16673 4.69966 9.16667 5.08998V17.3333ZM18.3333 15.97L10.8333 17.3333V5.08998C10.8333 4.69966 10.9702 4.3217 11.2203 4.02199C11.4703 3.72228 11.8176 3.51985 12.2017 3.44998L17.3508 2.51415C17.4709 2.49231 17.5942 2.4971 17.7122 2.52817C17.8302 2.55924 17.9399 2.61584 18.0336 2.69397C18.1274 2.7721 18.2028 2.86986 18.2546 2.98033C18.3063 3.09081 18.3332 3.21131 18.3333 3.33332V15.97Z" fill="#212121"/>
</svg>
